<?xml version="1.0" standalone="no"?>
<!DOCTYPE svg PUBLIC "-//W3C//DTD SVG 20010904//EN"
 "http://www.w3.org/TR/2001/REC-SVG-20010904/DTD/svg10.dtd">
<svg version="1.0" xmlns="http://www.w3.org/2000/svg"
 width="549.000000pt" height="413.000000pt" viewBox="0 0 549.000000 413.000000"
 preserveAspectRatio="xMidYMid meet">
<metadata>
Created by potrace 1.16, written by Peter Selinger 2001-2019
</metadata>
<g transform="translate(0.000000,413.000000) scale(0.100000,-0.100000)"
fill="#000000" stroke="none">
<path d="M843 3386 c-228 -75 -350 -399 -315 -834 14 -170 31 -271 72 -432
144 -571 477 -1105 810 -1300 148 -87 292 -105 405 -51 182 86 276 317 276
684 0 86 -2 161 -5 165 -7 12 -499 -28 -906 -74 -118 -13 -242 -27 -275 -30
l-60 -6 36 36 36 37 254 29 c140 16 400 41 579 56 179 15 327 28 328 30 8 6
-50 290 -82 401 -175 608 -539 1127 -889 1270 -76 31 -201 40 -264 19z m663
-665 c39 -18 84 -63 84 -84 0 -6 -10 -1 -22 10 -64 58 -162 72 -238 33 -45
-23 -100 -98 -100 -137 0 -13 -4 -23 -10 -23 -15 0 -12 77 4 108 49 94 182
138 282 93z m-417 -126 c44 -22 127 -120 160 -188 55 -110 73 -204 74 -367 1
-145 -11 -219 -36 -221 -20 -2 -172 3 -174 5 -2 1 13 38 32 82 43 97 47 164
13 188 -47 33 -194 11 -240 -34 -38 -39 -38 -94 2 -178 l30 -63 -93 3 c-91 3
-92 3 -106 33 -37 78 -21 318 30 448 44 112 142 239 220 286 40 25 51 26 88 6z
m785 -296 c36 -29 36 -86 0 -123 -33 -32 -38 -32 -52 -1 -9 19 -19 25 -42 25
-50 0 -64 -46 -57 -195 4 -66 9 -134 13 -151 l6 -32 -52 -3 c-29 -2 -57 -1
-63 3 -9 5 -12 76 -12 245 l0 238 44 3 c37 3 48 -1 61 -18 l16 -22 39 26 c46
31 64 32 99 5z m-358 -149 c0 -85 7 -193 14 -239 9 -59 10 -85 2 -90 -6 -4
-35 -4 -64 -1 l-53 5 -3 220 c-1 121 0 230 3 243 5 21 11 23 53 20 l47 -3 1
-155z"/>
<path d="M1002 2412 c-43 -43 -92 -134 -92 -170 0 -23 2 -24 43 -18 23 3 74 9
112 12 85 8 98 17 89 58 -14 64 -75 156 -104 156 -5 0 -27 -17 -48 -38z"/>
<path d="M3576 2423 c-11 -65 -18 -434 -9 -518 l8 -80 59 -3 c52 -3 58 -1 52
14 -4 9 -9 49 -13 88 -5 61 -3 75 12 89 10 10 25 17 34 15 26 -5 62 -84 68
-148 l6 -60 58 0 59 0 0 33 c0 66 -30 137 -78 189 -46 49 -46 50 -29 76 36 57
67 128 67 155 0 26 -2 27 -50 27 -48 0 -50 -1 -50 -27 0 -57 -76 -183 -100
-168 -18 11 -8 210 16 323 l7 32 -55 0 -55 0 -7 -37z"/>
<path d="M4840 2345 c-31 -32 -39 -35 -90 -35 -74 0 -119 -24 -147 -80 -30
-57 -29 -95 2 -156 30 -60 31 -71 4 -79 -27 -9 -59 -62 -59 -98 0 -18 11 -39
29 -58 24 -23 38 -29 74 -29 24 0 64 7 87 15 55 19 89 19 112 -1 23 -22 44 -6
60 48 9 32 9 41 -3 54 -26 25 -81 27 -158 6 -78 -22 -101 -20 -101 9 0 25 30
39 103 49 68 10 103 31 131 79 25 43 25 127 1 168 -22 37 -14 63 19 63 32 0
39 12 20 38 -30 43 -48 44 -84 7z m-41 -131 c59 -75 -28 -172 -102 -114 -34
27 -38 89 -7 120 30 30 83 27 109 -6z"/>
<path d="M4169 2304 c-18 -22 -35 -308 -23 -404 l9 -75 54 -3 54 -3 -7 57
c-23 194 -17 265 27 312 28 31 72 29 93 -3 14 -22 16 -44 11 -143 -3 -64 -13
-141 -21 -169 l-14 -53 59 0 c55 0 59 1 66 28 5 15 8 101 8 192 0 148 -2 169
-21 200 -31 53 -63 67 -116 52 -67 -20 -73 -20 -71 6 3 20 -1 22 -46 22 -32 0
-53 -5 -62 -16z"/>
<path d="M2215 2297 c-81 -37 -135 -139 -135 -255 0 -91 15 -137 59 -185 35
-37 43 -41 98 -45 102 -7 163 45 163 138 l-1 45 -22 -26 c-42 -50 -93 -62
-146 -34 -69 35 -77 181 -14 256 33 39 92 41 121 4 24 -30 38 -32 52 -6 31 60
-10 112 -92 118 -31 2 -65 -2 -83 -10z"/>
<path d="M2627 2285 c-38 -26 -57 -26 -57 1 0 10 -13 14 -50 14 l-50 0 0 -217
c0 -120 3 -228 6 -240 6 -20 13 -23 61 -23 l54 0 -8 48 c-4 26 -8 103 -8 170
0 123 0 124 28 148 35 30 42 30 71 -1 28 -30 30 -31 56 -3 41 44 13 128 -43
128 -12 0 -39 -11 -60 -25z"/>
<path d="M2855 2296 c-17 -7 -36 -21 -44 -30 -20 -24 -18 -76 4 -92 26 -19 28
-18 47 16 15 26 23 30 61 30 50 0 81 -25 75 -61 -2 -18 -13 -25 -51 -35 -106
-27 -176 -110 -162 -193 14 -83 70 -111 221 -111 l107 0 -6 179 c-7 186 -14
220 -50 260 -45 48 -137 65 -202 37z m143 -248 c19 -19 15 -113 -5 -133 -34
-34 -113 7 -113 59 1 53 85 107 118 74z"/>
<path d="M3305 2291 c-86 -40 -129 -123 -130 -251 0 -71 4 -93 25 -135 34 -67
77 -95 147 -95 92 0 143 47 143 133 l0 45 -34 -34 c-27 -27 -42 -34 -73 -34
-91 0 -136 93 -103 211 24 85 103 117 154 63 26 -29 42 -26 56 12 31 79 -84
132 -185 85z"/>
<path d="M3060 1740 c-261 -10 -785 -37 -897 -47 -73 -6 -73 -6 -73 -35 l0
-29 53 5 c28 3 131 10 227 16 695 39 1437 54 2020 41 582 -14 525 -16 538 13
10 23 9 24 -36 30 -82 10 -1587 15 -1832 6z"/>
</g>
</svg>
