<?xml version="1.0" standalone="no"?>
<!DOCTYPE svg PUBLIC "-//W3C//DTD SVG 20010904//EN"
 "http://www.w3.org/TR/2001/REC-SVG-20010904/DTD/svg10.dtd">
<svg version="1.0" xmlns="http://www.w3.org/2000/svg"
 width="1600.000000pt" height="1000.000000pt" viewBox="0 0 1600.000000 1000.000000"
 preserveAspectRatio="xMidYMid meet">
<metadata>
Created by potrace 1.16, written by Peter Selinger 2001-2019
</metadata>
<g transform="translate(0.000000,1000.000000) scale(0.100000,-0.100000)"
fill="#000000" stroke="none">
<path d="M0 7694 l0 -2306 32 7 c17 4 47 16 65 26 19 11 44 19 58 19 13 0 39
9 57 19 18 10 47 22 65 26 17 3 37 13 44 21 6 8 19 14 27 14 20 0 107 30 185
64 21 9 48 16 62 16 13 0 30 7 38 15 8 7 28 17 43 21 16 4 44 16 62 26 18 10
43 18 57 18 13 0 39 8 57 19 18 10 56 24 83 31 28 7 54 17 59 21 6 5 18 9 28
9 10 0 18 4 18 9 0 5 14 13 32 16 18 4 39 11 48 16 31 16 101 39 119 39 11 0
26 7 35 15 8 8 41 21 74 29 33 8 86 27 119 43 32 16 81 35 108 43 28 7 54 17
59 21 6 5 18 9 28 9 10 0 18 4 18 9 0 5 34 17 75 26 41 9 79 23 86 31 6 8 22
14 35 14 12 0 29 7 38 15 8 8 41 21 74 29 33 7 81 25 108 38 27 14 67 28 88
32 20 4 53 16 72 27 19 10 41 19 49 19 8 0 15 4 15 9 0 5 34 17 75 26 41 9 79
23 86 31 6 8 19 14 28 14 19 1 119 34 128 44 3 3 13 6 20 6 8 0 40 13 72 29
31 15 74 31 95 35 21 4 53 16 72 27 19 10 45 19 59 19 13 0 39 9 57 19 18 10
47 22 65 26 17 3 37 13 44 21 6 8 19 14 27 14 15 0 73 18 127 40 67 27 108 40
124 40 11 0 26 7 34 15 8 7 28 17 43 21 16 4 44 16 62 26 18 10 43 18 57 18
13 0 39 8 57 19 18 10 56 24 83 31 28 7 54 17 60 21 5 5 17 9 27 9 10 0 18 4
18 9 0 5 14 13 32 16 18 4 39 11 48 16 31 16 101 39 119 39 11 0 26 7 35 15 8
8 41 21 74 29 33 7 81 25 108 38 27 14 67 28 88 32 20 4 53 16 72 27 19 10 41
19 49 19 8 0 15 4 15 9 0 5 34 17 75 26 41 9 79 23 86 31 6 8 19 14 28 14 19
1 119 34 128 44 3 3 13 6 20 6 8 0 40 13 72 29 33 16 77 32 99 36 53 9 74 31
41 44 -13 5 -28 6 -34 3 -7 -3 -7 -1 0 6 6 6 22 8 38 5 35 -7 36 -42 2 -109
-31 -60 -31 -59 0 -90 l25 -25 -27 -77 c-41 -123 -44 -144 -25 -166 11 -12 17
-35 17 -65 0 -39 3 -46 20 -46 13 0 28 -14 43 -44 23 -43 23 -43 4 -65 -11
-11 -27 -36 -36 -53 -9 -18 -22 -33 -29 -33 -7 0 -57 -22 -112 -49 -139 -68
-187 -120 -270 -294 -35 -73 -72 -163 -83 -202 -58 -207 -56 -191 -60 -535 -2
-212 0 -351 8 -400 15 -100 102 -363 156 -474 24 -48 42 -92 39 -96 -11 -18
-75 -90 -151 -170 -45 -47 -100 -111 -123 -142 -26 -36 -46 -55 -55 -52 -20 8
-169 -14 -251 -36 -92 -25 -259 -99 -332 -146 -32 -21 -95 -75 -140 -120 -81
-80 -85 -87 -187 -295 -119 -245 -202 -395 -250 -453 -18 -23 -83 -97 -145
-165 -139 -155 -197 -231 -229 -301 -13 -30 -37 -83 -52 -117 -33 -72 -98
-146 -173 -197 -50 -34 -211 -86 -266 -86 -24 0 -120 -27 -305 -86 -151 -49
-274 -106 -484 -223 -237 -132 -506 -269 -556 -282 -99 -27 -258 -60 -333 -69
-110 -14 -433 -108 -563 -163 l-105 -45 -3 -661 -2 -661 5746 0 c5473 0 5746
1 5732 18 -239 277 -608 735 -608 754 0 10 51 82 113 161 63 78 150 203 194
277 77 129 211 394 248 490 10 25 24 59 31 77 8 17 14 37 14 45 0 8 4 18 8 23
5 6 23 57 41 115 18 58 37 114 41 125 4 11 22 61 40 110 18 50 39 104 46 122
8 17 14 37 14 45 0 8 4 18 8 23 5 6 17 37 27 70 11 33 23 64 27 70 4 5 8 17 8
27 0 9 6 37 14 60 21 66 61 194 86 278 47 159 49 162 121 235 40 41 88 104
114 149 25 44 45 81 45 82 0 12 82 173 139 273 39 68 71 126 71 128 0 2 12 30
26 61 47 104 52 116 84 222 17 58 36 116 40 130 5 14 12 43 16 65 4 22 10 45
14 50 4 6 10 26 14 45 3 19 8 46 11 60 3 14 10 50 15 80 12 75 36 187 49 230
21 74 37 119 44 126 4 4 7 14 7 22 0 8 6 28 14 45 39 87 88 238 107 329 18 87
21 124 16 238 -3 74 -8 142 -11 151 -6 13 14 17 141 27 81 6 238 14 349 16
110 3 220 10 245 15 24 6 94 15 154 20 113 10 208 22 305 40 30 6 96 17 145
26 50 9 97 20 105 25 9 4 40 11 70 15 30 4 61 12 67 17 7 6 24 8 38 6 14 -3
25 -1 25 3 0 5 11 9 24 9 14 0 28 5 31 10 3 6 13 10 21 10 10 0 9 -5 -6 -20
-11 -11 -31 -20 -45 -20 -14 0 -25 -4 -25 -8 0 -5 -13 -7 -29 -4 -16 2 -32 -1
-36 -8 -6 -10 -1 -11 21 -6 27 6 28 5 10 -9 -15 -11 -16 -15 -5 -15 8 0 20 5
26 11 6 6 19 9 29 6 16 -4 15 -5 -3 -6 -20 -1 -23 -6 -23 -46 0 -33 4 -45 15
-45 11 0 15 -11 15 -40 0 -29 4 -40 15 -40 12 0 15 -16 15 -80 0 -47 4 -80 10
-80 6 0 10 -18 10 -40 0 -29 -4 -40 -15 -40 -11 0 -15 -11 -15 -40 0 -29 4
-40 15 -40 11 0 15 11 15 40 0 29 4 40 15 40 12 0 15 -16 15 -80 0 -64 3 -80
15 -80 13 0 15 -20 15 -120 0 -73 4 -120 10 -120 6 0 10 -18 10 -40 0 -29 4
-40 15 -40 13 0 15 -29 15 -200 0 -171 2 -200 15 -200 13 0 15 -38 15 -280 0
-242 -2 -280 -15 -280 -13 0 -15 -29 -15 -200 0 -171 -2 -200 -15 -200 -11 0
-15 -11 -15 -40 0 -22 5 -40 10 -40 6 0 10 -18 10 -40 0 -22 -4 -40 -10 -40
-5 0 -10 18 -10 40 0 38 -2 40 -30 40 l-30 0 0 -80 c0 -73 2 -80 20 -80 17 0
20 -7 20 -40 0 -29 -4 -40 -15 -40 -12 0 -15 -16 -15 -80 0 -64 -3 -80 -15
-80 -11 0 -15 -11 -15 -40 0 -22 -4 -40 -10 -40 -6 0 -10 -33 -10 -80 0 -64
-3 -80 -15 -80 -11 0 -15 -11 -15 -40 0 -29 -4 -40 -15 -40 -11 0 -15 -11 -15
-40 0 -22 -4 -40 -10 -40 -5 0 -10 -18 -10 -40 0 -29 -4 -40 -15 -40 -11 0
-15 -11 -15 -40 0 -29 -4 -40 -15 -40 -11 0 -15 -11 -15 -40 0 -22 -4 -40 -10
-40 -5 0 -10 -18 -10 -40 0 -29 -4 -40 -15 -40 -11 0 -15 -12 -15 -44 0 -26
-6 -48 -15 -56 -8 -7 -15 -28 -15 -48 0 -24 -7 -42 -25 -58 -20 -18 -25 -33
-25 -69 0 -41 -2 -45 -25 -45 -22 0 -25 -4 -25 -40 0 -29 -4 -40 -15 -40 -11
0 -15 -11 -15 -40 0 -36 -2 -40 -25 -40 -22 0 -25 -4 -25 -40 0 -29 -4 -40
-15 -40 -11 0 -15 -12 -15 -44 0 -26 -6 -48 -15 -56 -12 -10 -15 -10 -15 4 0
9 -4 16 -10 16 -5 0 -10 -18 -10 -40 0 -29 -4 -40 -15 -40 -11 0 -15 -12 -15
-45 0 -41 -3 -48 -34 -66 -38 -22 -54 -49 -30 -49 24 0 -1 -37 -39 -57 -18 -9
-26 -18 -19 -20 19 -7 14 -24 -15 -51 -26 -24 -26 -26 -8 -32 18 -6 18 -8 -8
-31 -48 -43 -117 -115 -117 -122 0 -3 8 -7 18 -9 13 -3 8 -10 -20 -27 -42 -25
-55 -48 -30 -53 14 -3 12 -8 -10 -28 -35 -32 -51 -48 -85 -85 l-27 -30 -6 25
-6 25 -29 -30 -30 -30 50 -5 50 -5 -36 -23 c-20 -12 -41 -33 -47 -47 -6 -13
-24 -31 -40 -39 -34 -17 -50 -46 -26 -46 22 0 -1 -38 -32 -52 -14 -7 -32 -25
-40 -40 -8 -16 -26 -34 -40 -40 -14 -7 -32 -24 -40 -40 -8 -15 -29 -35 -47
-44 -17 -10 -26 -19 -19 -21 6 -3 12 -9 12 -15 0 -13 -56 -68 -69 -68 -6 0
-11 -5 -11 -11 0 -12 -12 -27 -67 -82 -55 -55 -70 -67 -82 -67 -6 0 -11 -7
-11 -15 0 -9 -7 -18 -15 -22 -9 -3 -23 -19 -31 -35 -8 -16 -26 -34 -40 -40
-14 -7 -32 -24 -40 -40 -8 -15 -27 -34 -43 -42 -16 -9 -31 -22 -34 -31 -6 -13
161 -15 1618 -15 l1625 0 0 5000 0 5000 -8000 0 -8000 0 0 -2306z m12875 640
c-6 -56 -5 -75 4 -70 6 4 19 -6 30 -25 10 -17 33 -39 49 -49 17 -10 33 -28 37
-39 3 -12 20 -28 36 -37 16 -8 35 -26 41 -40 7 -14 24 -32 40 -40 15 -8 34
-27 43 -43 8 -16 24 -33 36 -36 11 -4 29 -20 39 -37 10 -16 33 -39 51 -51 l34
-21 -30 -6 -30 -6 33 -17 c18 -10 38 -29 44 -42 6 -14 25 -33 42 -43 17 -11
40 -37 51 -58 34 -67 64 -107 94 -125 16 -10 32 -27 36 -38 3 -12 15 -26 26
-31 21 -12 25 -36 7 -43 -7 -2 1 -11 19 -20 41 -22 61 -54 36 -59 -16 -3 -16
-5 2 -20 21 -18 60 -57 95 -94 23 -24 26 -40 8 -47 -7 -2 1 -11 19 -20 40 -21
53 -44 53 -93 0 -30 7 -43 34 -68 19 -17 44 -50 56 -74 12 -23 26 -45 31 -48
5 -3 9 -25 9 -50 0 -40 2 -44 25 -44 20 0 25 -5 25 -24 0 -13 7 -29 15 -36 9
-8 15 -30 15 -56 0 -40 2 -44 25 -44 20 0 25 -5 25 -24 0 -14 10 -33 23 -43
13 -10 22 -24 19 -31 -2 -7 11 -27 29 -43 l33 -29 -77 0 c-42 0 -79 4 -82 10
-3 5 -28 12 -55 16 -28 4 -50 10 -50 14 0 5 -21 10 -47 13 -58 7 -281 49 -378
72 -107 25 -177 45 -372 105 -73 23 -172 50 -220 60 -49 11 -122 29 -163 41
-41 12 -86 24 -100 28 -25 7 -25 7 -28 150 -2 136 3 203 28 316 6 28 17 84 25
125 7 41 21 107 30 145 9 39 19 84 22 100 3 17 9 35 13 40 4 6 11 35 15 65 4
30 11 61 15 70 5 8 14 47 20 85 12 69 20 108 40 203 11 51 16 82 26 152 3 25
10 49 15 55 5 5 9 24 9 42 0 18 3 33 6 33 3 0 2 -34 -1 -76z"/>
</g>
</svg>
