<?xml version="1.0" standalone="no"?>
<!DOCTYPE svg PUBLIC "-//W3C//DTD SVG 20010904//EN"
 "http://www.w3.org/TR/2001/REC-SVG-20010904/DTD/svg10.dtd">
<svg version="1.0" xmlns="http://www.w3.org/2000/svg"
 width="512.000000pt" height="512.000000pt" viewBox="0 0 512.000000 512.000000"
 preserveAspectRatio="xMidYMid meet">
<metadata>
Created by potrace 1.16, written by Peter Selinger 2001-2019
</metadata>
<g transform="translate(0.000000,512.000000) scale(0.100000,-0.100000)"
fill="#000000" stroke="none">
<path d="M2272 4630 c-761 -148 -1416 -279 -1455 -291 -43 -13 -80 -31 -92
-45 -12 -13 -26 -24 -33 -24 -7 0 -12 -4 -12 -10 0 -5 -13 -25 -30 -43 -18
-21 -30 -46 -30 -63 0 -16 88 -483 195 -1039 108 -555 209 -1077 225 -1160 16
-82 56 -292 89 -465 97 -499 174 -899 217 -1124 16 -83 33 -150 40 -153 10 -4
2784 527 2837 543 18 6 22 30 9 52 -6 9 -324 -49 -1382 -253 -755 -146 -1375
-263 -1378 -261 -7 8 90 66 128 76 82 23 2842 550 2851 545 5 -4 18 -3 29 0
16 5 20 15 20 51 0 25 -169 918 -375 1984 -206 1067 -375 1942 -375 1945 0 18
-239 -25 -1478 -265z m-74 -1027 c10 -16 146 -234 302 -486 193 -313 279 -462
272 -469 -11 -11 -123 -37 -162 -38 -22 0 -37 19 -114 145 -49 80 -94 145
-101 145 -23 0 -330 -61 -350 -69 -18 -7 -24 -30 -44 -162 -13 -85 -27 -161
-32 -170 -10 -20 -168 -54 -182 -40 -9 9 161 1042 182 1111 7 22 18 27 87 41
111 24 120 23 142 -8z m1062 -105 c110 -47 145 -117 200 -401 22 -113 47 -224
55 -246 8 -23 12 -47 9 -55 -3 -7 -30 -19 -61 -25 -89 -18 -103 -15 -115 20
l-11 31 -41 -41 c-118 -115 -329 -133 -429 -36 -49 48 -68 87 -74 154 -10 105
63 213 183 274 55 28 205 77 235 77 23 0 24 20 5 59 -45 86 -193 86 -326 1
-26 -17 -53 -30 -61 -30 -22 0 -73 91 -62 110 15 24 111 78 181 101 125 42
227 44 312 7z"/>
<path d="M2081 3198 c-18 -110 -30 -202 -28 -205 5 -4 116 14 229 38 l47 10
-67 107 c-36 59 -85 139 -107 179 l-42 72 -32 -201z"/>
<path d="M3170 3101 c-119 -39 -177 -83 -186 -143 -13 -75 52 -136 130 -124
99 16 167 87 165 172 -3 116 -15 126 -109 95z"/>
</g>
</svg>
