<?xml version="1.0" standalone="no"?>
<!DOCTYPE svg PUBLIC "-//W3C//DTD SVG 20010904//EN"
 "http://www.w3.org/TR/2001/REC-SVG-20010904/DTD/svg10.dtd">
<svg version="1.0" xmlns="http://www.w3.org/2000/svg"
 width="260.000000pt" height="276.000000pt" viewBox="0 0 260.000000 276.000000"
 preserveAspectRatio="xMidYMid meet">
<metadata>
Created by potrace 1.16, written by Peter Selinger 2001-2019
</metadata>
<g transform="translate(0.000000,276.000000) scale(0.100000,-0.100000)"
fill="#000000" stroke="none">
<path d="M1228 2700 c-13 -8 -18 -24 -18 -55 0 -24 -13 -124 -30 -222 -16 -98
-30 -178 -30 -179 0 -1 -25 -1 -56 0 -50 0 -59 -3 -81 -28 -15 -18 -23 -38
-21 -55 3 -25 11 -30 76 -47 13 -4 3 -28 -26 -66 -9 -11 -10 -18 -3 -23 7 -4
8 -12 2 -24 -12 -22 -16 -127 -6 -168 l7 -32 -64 6 c-44 4 -67 2 -72 -6 -4 -6
-2 -74 5 -150 6 -77 9 -150 6 -163 -5 -19 -38 -40 -147 -96 l-140 -73 -2 81
c-1 44 -2 90 -2 103 -1 17 5 23 27 25 26 3 27 5 27 68 l0 64 -165 0 -165 0 0
-64 c0 -63 0 -64 30 -69 l30 -6 0 -334 c0 -212 -4 -345 -11 -365 -14 -41 -56
-56 -115 -41 -25 7 -46 10 -48 8 -2 -2 -7 -31 -11 -65 l-7 -61 49 -14 c132
-37 250 -5 311 85 l32 48 0 -305 0 -306 -27 -3 c-27 -3 -28 -6 -31 -66 l-3
-62 166 0 165 0 0 65 0 65 -30 0 -31 0 3 122 c3 114 4 123 23 125 15 2 38 -25
102 -120 101 -151 142 -200 199 -233 86 -50 213 -41 312 23 39 25 43 31 37 58
-3 17 -8 55 -11 85 l-5 55 48 30 c65 40 63 40 63 11 0 -21 -5 -26 -25 -26 -26
0 -26 -1 -23 -67 l3 -68 126 -3 127 -3 7 66 c5 49 11 68 23 72 10 3 32 17 50
30 l32 24 30 -24 c55 -47 147 -59 188 -25 8 7 12 7 12 -1 0 -8 43 -11 140 -11
l140 0 0 55 c0 61 24 122 52 131 16 5 18 17 18 100 0 71 -3 96 -14 100 -8 3
-16 29 -20 70 -8 76 -41 180 -138 429 -39 99 -85 220 -103 269 -35 96 -56 122
-111 132 -38 7 -40 16 -35 140 l3 61 -67 80 -67 80 -57 6 c-56 6 -109 27 -140
56 -8 7 -28 18 -44 23 -24 9 -28 14 -22 37 13 52 78 208 126 300 27 52 49 102
49 112 0 78 -544 277 -622 229z m103 -495 c147 -50 319 -130 319 -148 0 -17
-20 -87 -25 -87 -2 0 -74 47 -160 104 -85 58 -187 117 -225 133 -66 26 -87 43
-56 43 7 0 74 -20 147 -45z m372 -292 c4 -2 7 -13 7 -24 0 -11 11 -37 25 -57
16 -23 25 -51 25 -75 0 -55 21 -97 75 -150 26 -26 45 -52 43 -59 -3 -7 -19
-17 -37 -22 -28 -8 -32 -12 -26 -35 4 -14 19 -46 35 -69 37 -56 92 -221 88
-263 l-3 -33 -26 30 c-15 16 -43 47 -62 69 -19 22 -70 60 -114 84 -79 45 -143
96 -143 115 0 6 29 49 65 96 36 46 65 92 65 102 0 10 -18 30 -40 44 -45 30
-46 32 -24 49 15 10 14 15 -5 53 -23 45 -27 87 -10 98 6 3 9 19 7 35 -4 26 -2
28 21 22 14 -3 29 -8 34 -10z m-1119 -337 c-18 -14 -19 -33 -24 -394 -5 -365
-6 -382 -26 -408 -46 -62 -112 -86 -199 -73 -29 5 -33 7 -13 8 59 3 106 31
128 75 19 40 20 60 20 414 l0 373 -22 9 c-17 6 3 9 66 9 80 1 88 -1 70 -13z
m418 -313 l-4 -117 51 47 c51 47 85 59 109 35 7 -7 12 -43 12 -92 0 -114 8
-152 34 -164 17 -9 13 -11 -29 -11 l-50 -1 3 113 c3 90 1 116 -11 125 -46 38
-121 -70 -115 -165 2 -39 7 -50 28 -60 22 -11 17 -13 -50 -12 -62 0 -71 2 -52
11 31 15 33 31 30 203 l-3 149 -25 7 -25 6 30 13 c51 21 70 29 70 29 0 1 -2
-52 -3 -116z m-182 -38 c38 -20 60 -63 60 -118 0 -75 -61 -144 -137 -154 -53
-7 -95 16 -118 63 -59 125 77 270 195 209z m520 -31 l0 -46 45 46 c32 33 52
46 73 46 46 0 52 -15 52 -129 0 -111 3 -121 35 -139 17 -10 12 -11 -30 -12
l-50 0 3 113 c3 92 1 116 -12 126 -43 36 -105 -43 -113 -143 -5 -62 -5 -64 23
-80 29 -15 28 -15 -45 -16 -71 0 -73 1 -53 18 17 14 21 33 25 109 5 98 2 108
-28 115 -17 4 -14 7 15 20 55 25 60 23 60 -28z m-293 -336 c98 -65 97 -205 -2
-301 -21 -20 -42 -37 -47 -37 -19 0 -4 -32 60 -126 100 -147 160 -221 200
-245 39 -23 107 -28 140 -10 29 15 37 14 22 -4 -16 -19 -103 -45 -149 -45 -90
1 -148 54 -289 263 l-86 127 -68 0 -68 0 0 -168 c0 -176 4 -195 45 -205 11 -3
-27 -5 -85 -6 -91 -1 -102 1 -80 12 l25 13 0 369 0 369 -25 13 c-21 12 5 13
171 11 193 -3 196 -3 236 -30z m323 -273 l0 -45 43 45 c36 37 50 45 79 45 77
0 113 -101 68 -189 -36 -72 -80 -97 -158 -92 l-33 3 3 -48 c2 -39 8 -51 25
-60 13 -6 20 -14 16 -17 -10 -11 -106 -8 -123 3 -13 8 -13 10 2 10 31 0 38 36
38 187 0 150 -6 178 -36 166 -29 -11 -12 9 19 22 51 23 57 20 57 -30z m330 3
l0 -42 44 43 c38 37 48 42 81 39 103 -8 108 -179 8 -255 -27 -21 -45 -26 -84
-25 l-49 1 0 -48 c0 -40 4 -50 23 -59 18 -9 10 -11 -47 -11 -66 -1 -68 -1 -47
16 21 17 22 25 19 183 -3 151 -5 165 -20 162 -28 -5 -21 13 10 25 53 21 62 17
62 -29z m422 31 c16 -9 48 -64 48 -84 0 -3 -42 -5 -94 -5 -52 0 -97 -4 -100
-8 -10 -16 13 -86 37 -109 32 -33 77 -33 127 1 37 24 40 25 30 6 -18 -34 -88
-74 -127 -73 -68 2 -124 89 -104 161 14 47 40 87 70 105 30 19 83 22 113 6z
m178 -31 l0 -43 18 28 c25 37 52 56 80 57 20 0 22 -5 22 -45 0 -46 -16 -63
-22 -22 -4 31 -45 30 -69 -3 -11 -14 -24 -51 -31 -82 -15 -71 -2 -108 37 -108
14 0 25 -4 25 -10 0 -6 -32 -10 -75 -10 -43 0 -75 4 -75 10 0 6 6 10 14 10 21
0 26 23 26 125 l0 94 -27 3 -28 4 35 16 c59 28 70 24 70 -24z"/>
<path d="M679 1191 c-68 -68 -9 -211 87 -211 92 0 100 166 10 221 -43 26 -63
24 -97 -10z"/>
<path d="M760 685 l0 -185 73 0 c119 1 186 45 203 137 9 49 -14 130 -50 171
-41 46 -81 62 -161 62 l-65 0 0 -185z"/>
<path d="M1431 584 c-32 -23 -61 -90 -61 -144 0 -40 4 -48 29 -63 40 -23 68
-21 96 7 49 49 57 154 14 197 -23 23 -47 24 -78 3z"/>
<path d="M1742 566 c-35 -41 -57 -120 -43 -157 13 -35 63 -56 96 -41 62 28 88
150 44 206 -28 36 -60 33 -97 -8z"/>
</g>
</svg>
