<svg xmlns="http://www.w3.org/2000/svg" viewBox="0 0 120.97 77.61"><defs><style>.cls-1{fill:#c40202;}.cls-1,.cls-2,.cls-3,.cls-4,.cls-6{stroke:#000;stroke-miterlimit:10;}.cls-1,.cls-2,.cls-3,.cls-4{stroke-width:3px;}.cls-2{fill:#b78c65;}.cls-4,.cls-6{fill:none;}.cls-5{fill:#ccc;}.cls-6{stroke-width:4px;}</style></defs><g id="Capa_2" data-name="Capa 2"><g id="Logos"><path class="cls-1" d="M85.61,57.38c-.46,2-1.91,5.33-5.68,10.76a4.67,4.67,0,0,0-1.71,0c-33,5.43-49.67-5.06-58-16l1.16-1c2.06-1.65,4.93-1.93,7.46-1.76a20.67,20.67,0,0,1,7.83,2.27,55.76,55.76,0,0,0,8.2,3.45c6.13,2,9.85,1.61,11.87,1A56.74,56.74,0,0,1,68.37,53.5a59.65,59.65,0,0,1,8.83-.3c1.55.07,2.89.2,4,.36.85.11,1.57.24,2.15.37A2.9,2.9,0,0,1,85.61,57.38Z"/><path class="cls-1" d="M84.34,75.67H29.9C18.41,68.05,12.82,60.45,10.39,53.82a24.2,24.2,0,0,1,1.64-21,31.92,31.92,0,0,0,1.18,5.42h0a43.74,43.74,0,0,0,7,13.88c8.33,10.93,25,21.42,58,16a4.67,4.67,0,0,1,1.71,0,4.48,4.48,0,0,1,3.31,2.47A13.57,13.57,0,0,1,84.34,75.67Z"/><path class="cls-1" d="M29.9,75.67H10.61c-3.45-8.75-1.82-17.05-.22-21.85C12.82,60.45,18.41,68.05,29.9,75.67Z"/><path class="cls-1" d="M81.2,53.56c-1.11-.16-2.45-.29-4-.36l3.57-13.69.29-1.14q.12-.32.21-.63a2.92,2.92,0,0,0,.13-.46,5.2,5.2,0,0,0,.2-.8c0-.21.09-.42.12-.62a3.21,3.21,0,0,0,.09-.61l.06-.6A17.83,17.83,0,0,0,81.34,29c0-.2-.1-.39-.16-.58,0,0,0,0,0,0-.08-.33-.18-.66-.29-1,0-.09-.06-.18-.09-.27s0-.14-.06-.21c-.1-.32-.21-.62-.32-.91s-.21-.59-.32-.86A13,13,0,0,0,79.57,24c-2-4.25-5.49-6.75-9.66-8.36h0c-.63-.25-1.29-.48-2-.69l-1-.29c-.84-.23-1.68-.44-2.54-.64-3.55,2.7-7.34,7.39-11,15.26a100.88,100.88,0,0,0-3.95,9.82c-1.58,4.61-3.12,9.94-4.58,16.08a55.76,55.76,0,0,1-8.2-3.45,20.67,20.67,0,0,0-7.83-2.27c-2.53-.17-5.4.11-7.46,1.76l-1.16,1a43.74,43.74,0,0,1-7-13.88h0C15.57,12.75,25.67,7.8,29.61,6.85a49.11,49.11,0,0,0,5-1.59c30.72-11.09,51,5.88,51,5.88C91.75,21.83,84.15,45.37,81.2,53.56Z"/><path d="M62.12,13.86a16.11,16.11,0,0,1,4.38-3,7.19,7.19,0,0,1,1.26-.5c.43-.14.86-.3,1.31-.41a18.86,18.86,0,0,1,2.71-.42,12.22,12.22,0,0,1,5.48.42,10.72,10.72,0,0,1,2.44,1.28,7.3,7.3,0,0,1,2,1.95l-.15.26c-1.87-.11-3.48-.36-5.08-.59s-3.07-.8-4.68-.92a15.7,15.7,0,0,0-4.82.35,17.25,17.25,0,0,0-4.67,1.81Z"/><path class="cls-2" d="M81.87,34.65l-.06.6a3.21,3.21,0,0,1-.09.61c0,.2-.08.41-.12.62a5.2,5.2,0,0,1-.2.8,2.92,2.92,0,0,1-.13.46q-.09.32-.21.63l-.29,1.14L77.2,53.2a59.65,59.65,0,0,0-8.83.3,56.74,56.74,0,0,0-11.63,2.62c-2,.63-5.74,1-11.87-1,1.46-6.14,3-11.47,4.58-16.08a100.88,100.88,0,0,1,3.95-9.82c3.67-7.87,7.46-12.56,11-15.26.86.2,1.7.41,2.54.64l1,.29c.66.21,1.32.44,2,.69h0c4.17,1.61,7.68,4.11,9.66,8.36a13,13,0,0,1,.53,1.25c.11.27.21.57.32.86s.22.59.32.91c0,.07,0,.13.06.21s.07.18.09.27c.11.32.21.65.29,1,0,0,0,0,0,0,.06.19.11.38.16.58A17.83,17.83,0,0,1,81.87,34.65Z"/><path d="M37,40.5A19.8,19.8,0,0,1,37,35a29.31,29.31,0,0,1,1.27-5.35A29.24,29.24,0,0,1,44,20.25a36.63,36.63,0,0,1,3.89-3.89,35.35,35.35,0,0,1,4.45-3.18,35.08,35.08,0,0,1,10-3.86l.08.29a36.88,36.88,0,0,0-9.31,4.82,34.35,34.35,0,0,0-3.95,3.36,35.67,35.67,0,0,0-3.32,3.94,56.65,56.65,0,0,0-4.79,9c-1.44,3.11-2.66,6.35-3.85,9.75Z"/><polygon class="cls-3" points="84.48 27.29 82.23 38.09 71.03 39.24 67.45 28.9 84.48 27.29"/><path class="cls-3" d="M66.87,28.94,64.43,39.65,52.21,40.89l-1.62-2.47A40.24,40.24,0,0,0,52.16,34c.18-.61.39-1.21.62-1.8s.56-1.48.73-2Z"/><polyline class="cls-4" points="67.45 29.62 72.97 48.06 66.43 49.29"/><path class="cls-5" d="M61.31,30.34a6.85,6.85,0,0,1,1.51-.3,3.68,3.68,0,0,1,1.61.26,1.87,1.87,0,0,1,1.19,1.35,2.06,2.06,0,0,1-.42,1.63.08.08,0,0,1-.08,0l0,0h0c-.2-.54-.26-1-.44-1.34a2.19,2.19,0,0,0-.61-.92,3.06,3.06,0,0,0-1.26-.46,6.41,6.41,0,0,0-1.46-.1s0,0,0,0A0,0,0,0,1,61.31,30.34Z"/><path class="cls-5" d="M80,28.38a6.32,6.32,0,0,1,1.51-.3,3.68,3.68,0,0,1,1.61.26,1.89,1.89,0,0,1,1.19,1.35,2,2,0,0,1-.42,1.62.05.05,0,0,1-.08,0l0,0h0A13.52,13.52,0,0,0,83.29,30a2,2,0,0,0-.6-.92,3.11,3.11,0,0,0-1.26-.46,6.45,6.45,0,0,0-1.46-.1,0,0,0,0,1,0-.05S79.93,28.39,80,28.38Z"/><polyline class="cls-6" points="119.16 6.17 86.54 75.61 0 75.61"/></g></g></svg>